<?xml version="1.0" encoding="UTF-8"?>
<svg id="_레이어_1" data-name="레이어_1" xmlns="http://www.w3.org/2000/svg" viewBox="0 0 1413.32 531.91">
  <defs>
    <style>
      .cls-1 {
        fill: #fff;
      }
    </style>
  </defs>
  <g>
    <path class="cls-1" d="M157.98,387.03v-128.47h68.58l22.98,65.32c2.17,6.16,4.16,11.22,4.7,16.1h.36c.54-4.89,2.54-10.13,4.71-16.47l22.07-64.96h70.39v128.47h-42.34v-70.57c0-8.14.91-17.73,2.53-27.14h-.9c-1.09,4.52-5.25,16.83-8.69,25.52l-27.87,72.19h-43.07l-26.24-71.83c-3.62-9.96-6.51-19.72-8.14-25.88h-.72c1.63,8.51,1.81,18.46,1.81,27.14v70.57h-40.17Z"/>
    <path class="cls-1" d="M368.82,322.8c0-41.98,33.83-68.58,87.04-68.58s87.21,26.6,87.21,68.58-33.65,68.58-87.21,68.58-87.04-26.6-87.04-68.58ZM494.22,322.8c0-21.17-15.2-35.1-38.36-35.1s-38.18,13.93-38.18,35.1,15.02,35.1,38.18,35.1,38.36-14.12,38.36-35.1Z"/>
    <path class="cls-1" d="M559.94,387.03v-128.47h47.95l52.65,59.89c3.44,3.98,7.96,10.31,10.86,15.92h.91v-75.82h41.8v128.47h-45.23l-55.01-59.89c-3.62-3.98-9.22-11.76-11.04-16.29h-.91v76.18h-41.98Z"/>
    <path class="cls-1" d="M788.86,387.03h-46.32v-128.47h46.32v128.47Z"/>
    <path class="cls-1" d="M949.92,258.56v35.28h-49.58v93.19h-46.14v-93.19h-49.4v-35.28h145.11Z"/>
    <path class="cls-1" d="M955.91,322.8c0-41.98,33.83-68.58,87.04-68.58s87.21,26.6,87.21,68.58-33.65,68.58-87.21,68.58-87.04-26.6-87.04-68.58ZM1081.31,322.8c0-21.17-15.2-35.1-38.36-35.1s-38.18,13.93-38.18,35.1,15.02,35.1,38.18,35.1,38.36-14.12,38.36-35.1Z"/>
    <path class="cls-1" d="M1247.45,387.03l-27.14-41.98h-26.96v41.98h-46.32v-128.47h89.93c44.33,0,57.18,21.35,57.18,42.16,0,14.48-6.69,30.94-26.78,38.9l31.12,47.41h-51.03ZM1193.35,288.06v29.31h32.57c14.84,0,19.36-6.87,19.36-15.02s-4.71-14.29-19.18-14.29h-32.75Z"/>
  </g>
  <path class="cls-1" d="M1335.57,335.5v86.8h-80.73c5.55,7.04,8.39,15.66,8.73,24.99h96.16v-119.91c-7.62,6.16-16.34,9.17-24.16,8.11Z"/>
  <path class="cls-1" d="M1163.13,428.73c2.72-2.32,5.52-4.46,8.37-6.43H122.61v-199.08h90.15c.77,0,1.4,2.69,2.59,3.45,2.12,1.35,9.8,6.4,12.08,6.89,1.23.27,2.98-.2,4.31,0,.32.05.55.83.86.86,6.91.71,15.26-.22,22.43,0,16.81.51,32.86.31,49.17-2.59.33-.06.55-.82.86-.86,7.92-.98,18.14,1.13,25.88,0,.32-.05.52-.79.86-.86.78-.17,1.87.2,2.59,0,3.46-.94,8.11-5.17,11.21-6.89.67-.37,1.71.81,1.29-1.72,1.39.47,1.82-.8,2.16-.86.99-.17,4.26-.2,5.18,0,.31.07.5.72.86.86,2.8,1.11,5.29,2.91,7.76,4.31,6.29,3.55,9.81,4,16.39,5.17,14.58,2.59,30.85.7,45.72,2.59,17.31,2.19,45.14,1.62,62.11-.86,4-.58,7.54-3.27,11.21-5.17.55-.29,2.29-1.66,2.59-1.72,1.02-.22,5.88-.22,6.9,0,1.44.31,5.08,3.92,6.9,4.31,4.41.95,21.36.33,26.74,0,6.26-.39,13.06-1.98,18.98-3.45,6.48-1.61,11.97-.22,18.12,0,7.92.28,15.88-.65,23.29.86,5.12,1.04,9.46,2.35,15.53,1.72.31-.03.54-.81.86-.86,2.4-.36,5.43-.19,7.76-.86.7-.2,3.73-1.38,4.31-1.72,1.37-.81,4.26-4.91,5.18-5.17.54-.15,1.21.16,1.73,0,.36-.11.55-.81.86-.86,1.06-.19,4.11-.19,5.18,0,.32.06.52.78.86.86,4.64,1.15,7.23,2.82,11.22,4.31,5.12,1.92,9.54,1.63,14.67,2.59,10,1.86,21.71,5.45,32.78,4.31.31-.03.54-.81.86-.86,2.65-.4,5.2-.28,7.76-.86l11.21-7.76c4.33.6,8.32,2.97,12.08,5.17,4.95,1.79,8.79,1.95,13.8,2.59.32.04.55.83.86.86,5.36.49,13.51.31,18.98,0,10.26-.58,21.61-2.9,31.92-3.45,14.18-.75,29.96,3.41,43.14-.86,4.83-1.56,9.77-2.43,15.53-1.72.32.04.53.8.86.86,30.3,5.38,64.47,4.38,96.62,5.17,17.38.43,34.51,1.01,49.17-7.76,1.3.21,3.2-.31,4.31,0,.89.24,3.82,4.37,5.18,5.17,2.73,1.62,5.58,1.27,8.63,1.72,11.55,1.74,22.05.79,32.78-1.72.77-.18,1.86.2,2.59,0,.33-.09.51-.73.86-.86,2.19-.79,4.26-1.85,5.61-3.88.58-.88,1.14-3.4,1.73-4.31,1.34-2.09,4.09-2.81,6.47-2.15.4.11,1.14,1.33,1.73,1.72,4.83,3.28,8.02,7.85,13.8,10.34,5,2.16,9.31,2.64,14.67,3.45.32.05.55.83.86.86,3.13.32,7.99.2,11.21,0,.3-.02.56-.84.86-.86,3.78-.28,5.93-.23,9.49-.86,1.06-.19,2.44.21,3.45,0,.32-.07.51-.75.86-.86.51-.16,1.19.15,1.73,0,.26-.08,3.54-3.36,3.88-3.88.19-.28,2.51-4.89,2.59-5.17.94-3.43,1.09-7.62,1.73-11.2.06-.33.82-.55.86-.86.63-5.07-.68-11.37,0-16.37.31-2.3,2.44-2.87,4.31-1.72,1.55.95,7.16,6.89,8.63,8.62,8,9.42,13.1,20.31,24.59,27.15.76.45,6.32,3.29,6.9,3.45.72.2,1.81-.17,2.59,0,.34.07.54.82.86.86,3.85.56,11.36.19,15.53,0,.3-.01.56-.85.86-.86,9.48-.51,20.29.3,28.47-5.17.7-.47,2.29-2.59,2.59-2.59h98.78v46.41c7.65-6.06,16.37-8.97,24.16-7.79v-62.75h-122.5c.15-3.27-.21-6.64,0-9.91,1.86-28.69,2.22-59.02,1.73-88.77-.18-10.97-2.53-25.7-.86-37.06.05-.35,1.34-1.28.86-3.45-2.11-3.15-4.2-6.7-7.33-9.05-3.95-2.96-9.02-4.22-13.8-5.17-.33-.07-.54-.82-.86-.86-3.88-.57-7.58,1.37-10.35.86-.88-.16-1.9-1.3-4.31-.86-6.74,1.23-14.22,1.57-20.71,3.45-1.23.36-3.96,1.24-5.18,1.72-.34.13-.51.7-.86.86-.26.12-.68-.11-.86,0-1.56.93-2,2.71-3.02,3.88-2.66,7.83-1.88,16.29-2.59,24.99-.02.31-.83.55-.86.86-.37,3.38,1.35,7.66-3.45,8.19.06-1,.14-1.65-.43-2.59-1.8-2.92-7.41-7.81-9.92-10.77-4.69-5.54-9.71-12.52-14.67-18.1-1.97-2.21-5.89-6.32-8.2-7.33-.48-.21-1.22.2-1.73,0-2.07-.83-4.02-2.09-6.04-2.59-5.77-1.41-11.09-1.27-17.25-1.72-.31-.02-.56-.84-.86-.86-8.23-.52-15.1,1.12-22.43,2.59-.33.07-.54.82-.86.86-3.22.47-10.26.13-12.94-.86-2.57-.95-5.98-3.33-8.63-4.31-2.91-1.08-5.57-.54-8.63-.86-.31-.03-.55-.84-.86-.86-4.71-.38-12.58-.43-17.25,0-.31.03-.54.82-.86.86-2.69.34-5.14-.1-7.76.86-2.45.9-7.44,4.73-9.49,5.17-.9.2-6.12.22-6.9,0-.61-.17-1.96-2.4-2.59-2.59-2.71-.8-5.18-1.21-7.76-1.72-16.05-3.2-33.84-2.3-50.04-5.17-9.57-1.7-19.82.94-29.33,1.72-14.62,1.2-29.41,1.01-43.14,4.31-4.79,1.15-9.89,3.08-14.67,4.31-4.03,1.04-7.97,1.67-12.08,2.59-.34.08-.54.8-.86.86-3.07.63-5.25-1.17-7.76-2.59-4.44-2.5-7.08-5.48-12.08-6.89-.35-.1-.54-.8-.86-.86-1.54-.27-3.55.21-5.18,0-11.05-1.4-24.55-1.35-36.23-.86-.3.01-.56.85-.86.86-3.92.18-10.5-.71-13.8,0-.76.16-3.34,2.23-4.31,2.59-3.92,1.44-11.97,1.26-16.39,1.72-1.93.2-4.18-.27-6.04,0-.32.05-.52.79-.86.86-.78.17-1.87-.2-2.59,0-1.09.3-4.75,2.65-6.04,3.45-2.18,1.34-5.7,4.17-7.33,6.46-.15.21-.22,1.84-1.29,2.15-1.59.47-4.02-1.8-4.74-3.02-.81-1.34-.92-3.83-1.73-5.17-.32-.53-2.46-2.64-3.02-3.02-.36-.24-2.04-.62-2.59-.86-2.56-1.15-3.32-1.18-6.04-1.72-12.38-2.47-25.54-2.2-37.96,0-1.06.19-2.47-.22-3.45,0-.34.08-.53.78-.86.86-.77.18-1.86-.2-2.59,0-3.51.96-8.86,7.62-12.94,9.48-.37.17-.55.79-.86.86-.85.2-2.07-.13-3.02,0,.17-1.45-.99-2.65-1.73-3.88-.13-.22.13-.67,0-.86-.9-1.4-5.69-4.09-7.33-4.74-8.94-3.54-20.55-3.95-30.19-5.17-.32-.04-.55-.83-.86-.86-3.29-.3-8.79-.3-12.08,0-.31.03-.54.82-.86.86-1.61.2-3.73-.31-5.18,0-2.57.56-8.77,5.49-11.22,6.03-1.52.34-8.61.25-10.35,0-4.89-.71-11.4-4.71-16.39-6.03-5.16-1.37-18.18-1.41-24.16-.86-.31.03-.54.82-.86.86-3.65.46-5.94.24-9.49,1.72-1.6.67-4.91,3.2-6.04,3.45-1.07.24-4.83.18-6.04,0-.58-.08-3.52-1.5-4.31-1.72-8.29-2.37-17.51-4.42-25.88-5.17-41.74-3.73-85.58-2.51-123.37,9.48-4.66,2.61-9.87,6.71-14.67,2.59-2.81-1.16-5.02-4.47-7.76-6.03-13.09-7.46-40.44-5.37-56.08-4.31-9.82.66-20.01,1.63-29.33,3.45-1.98.39-4.96.31-6.9.86-2.16.61-4.52,1.9-6.9,2.59-.43.12-1.13,1.37-1.73,1.72-15.66,9.24-28.77,34.67-34.08,51.28-1.07,3.34-3.04,8.74-3.45,12.07-.26,2.14-.35,8.35,0,10.34.06.32.76.51.86.86.16.55-.18,1.24,0,1.72.2.55,1.34,1.93,1.73,2.59.13.22-.12.67,0,.86,1.15,1.8,3.48,2.2,4.74,3.88,2.21.3,5.01,2.14,6.9,2.59.8.19,2.8-.22,3.02,0,.15.15-.19.83,0,1.29.15.35.74.52.86.86.6,1.65,2.4,5.9,2.59,6.89.12.67.14,3.74,0,3.88-.16.16-.89-.23-1.29,0-.6.33-1.13,1.39-1.73,1.72-3.77,2.08-3.82.94-6.47,4.74-.8,1.15-4.96,6.12-5.18,6.89-.15.54.16,1.21,0,1.72-.11.36-.81.55-.86.86-.32,1.79.27,4.17,0,6.03-.05.34-1.36,1.31-.86,3.45,1.57,6.73,2.19,13.79,3.45,20.68.06.34,1.53,1.49.86,3.02h-100.07v248.21h587.5l-38.82,44.81h158.74l-38.82-44.81h379.1c4.63-6.59,10.31-12.88,16.97-18.57ZM1082.8,86.62c.27-5.82-.59-11.92.86-17.24.11-.39,1.52-2.07,1.73-2.59.2-.5-.21-1.25,0-1.72.33-.74,1.49-2.6,2.16-3.02.17-.11.59.13.86,0,.37-.17.56-.79.86-.86,1.22-.27,2.99.21,4.31,0,3.26-.53,8.06-2.26,11.22-2.59,2.12-.22,6.6-.3,8.63,0,.32.05.52.79.86.86.78.17,1.87-.2,2.59,0,1.8.49,5.25,3.15,6.9,4.31,10.82,7.59,19.67,20.02,27.17,30.59,3.75,5.28,6.89,10.59,10.35,15.51,2.13,3.04,7.89,10.78,10.78,12.5.17.1,1.62.84,1.73.86,1.55.35,3.9-.24,5.61,0l5.18-62.05c1.42.46,1.71-.73,2.16-.86.98-.29,2.58-.66,3.45-.86,9.28-2.16,17.76-1.75,26.74.86.62,1.07,2.65,1.2,3.45,1.72.59.39,4.65,4.42,4.74,4.74.16.54-.16,1.21,0,1.72.11.35.76.52.86.86.2.69-.16,1.79,0,2.59.07.33.82.54.86.86.95,6.46.29,19.7,0,26.72-.18,4.38-1.54,11.14-1.73,15.51-1.17,28.28,1.42,57.6-.86,85.32-.2,2.43.39,5.53,0,7.76-.06.34-1.34.77-.86,2.15-1.39-.47-1.82.8-2.16.86-1.54.27-3.55-.21-5.18,0-.32.04-.55.83-.86.86-4.37.4-14.85.6-18.98,0-.26-.04-1.86-1.58-3.45-.86-1.28-.5-2.43-2.02-3.45-2.59-.41-.23-1.13.16-1.29,0-.16-.16.23-.89,0-1.29-1.12-2-4.56-4.96-6.04-6.89-7.7-10.11-15.84-21.32-24.16-31.03-5.27-6.15-11.92-14.03-18.55-18.53-.59-.4-1.33-1.61-1.73-1.72-2.81-.77-5.86.55-7.33,3.02-1.09,1.83-.54,3.36-.86,5.17-.06.33-.82.55-.86.86-.62,5.02-.23,13.67,0,18.96.24,5.37.31,9.21,0,14.65-.33,5.68.1,10.99-.86,16.37-.06.32-.75.5-.86.86-.16.51.16,1.18,0,1.72-.04.15-1.82,1.95-2.16,2.15-.19.11-.6-.12-.86,0-.37.17-.56.79-.86.86-1.21.27-2.98-.2-4.31,0-.33.05-.55.83-.86.86-4.66.48-19.94.75-24.16,0-.32-.06-.51-.76-.86-.86-.99-.28-2.35-.29-3.45-.86-1.2-1.86-6.83-4.71-7.33-6.46-.15-.54.16-1.21,0-1.72-.11-.35-.79-.53-.86-.86-.5-2.13.72-2.85.86-3.45,2.54-10.63-.42-23.03-.86-33.61-1.11-26.8.52-54.42,1.73-80.15ZM1010.33,190.9c.02-.31.84-.55.86-.86,2.43-29.47,5.11-60.09,2.59-90.49-.03-.31-.83-.55-.86-.86-1.03-11.11-1.69-19.94,1.73-30.16.18-.53-.19-1.24,0-1.72.1-.25.76-1.55.86-1.72.31-.52,2.46-2.65,3.02-3.02.3-.2,2.89-1.5,3.45-1.72,2.57-1.03,6.27-2.04,8.63-2.59,12.02-2.79,21.7-1.28,32.78,2.59l5.61,4.74c-.03,2.74,1.31,4.72.86,7.76-.05.32-.82.54-.86.86-3.62,29.48,1.81,63.53-1.73,93.08-.18,1.5-1.49,5.34-1.73,6.89-1.37,9.09-.57,19.32-1.73,28.44-.2,1.6.32,3.74,0,5.17-.07.31-.72.49-.86.86-.23.59-.62,2.2-.86,2.59-.4.62-2.36,1.89-3.02,2.15-.47.19-1.17-.16-1.73,0-1.78.5-2.45.53-4.31.86-1.7.3-5.25,1.5-6.9,1.72-4.53.62-10.87,1.29-15.53.86-.31-.03-.54-.82-.86-.86-2.69-.34-5.14.1-7.76-.86-1.16-.43-3.11-2.08-4.31-2.59-.46-.19-1.14.15-1.29,0-.16-.16.23-.89,0-1.29-.76-1.36-4.9-4.22-5.18-5.17-.15-.54.16-1.21,0-1.72-.11-.36-.81-.55-.86-.86-.47-2.62-.2-9.13,0-12.07ZM999.98,127.13c1.21,9.7,1.22,20.47,0,30.16-.2,1.61.31,3.73,0,5.17-.07.31-1.51,2.08-1.73,2.59-.19.46.15,1.14,0,1.29-.15.15-.83-.19-1.29,0-.58.24-.94,1.36-2.59.86-.36-.22-.56-.76-.86-.86-1.01-.33-3.4-.5-4.31-.86-1.49-.59-4.86-3.19-6.04-3.45-3.06-.66-7.91-.42-11.22-.86-.32-.04-.54-.82-.86-.86-1.49-.19-3.21.13-4.74,0l.86-3.88c9.57-12.01,20.01-20.98,27.61-33.61.63-1.04,1.21-2.2,2.16-3.02,4.19.97,2.64,4.32,3.02,7.33ZM861.95,69.39c1.48-2.16,2.36-4.88,4.74-6.46.23-.15,3.04-1.57,3.45-1.72,1.88-.69,4.18-.45,6.04-.86,17.89-3.98,36.3-6.17,55.21-7.76,6.54-.55,13.68,1.27,19.84,1.72,9.2.68,19.73.17,28.47,1.72.33.06.54.82.86.86,3.87.53,8.58.33,12.08,1.72.34.13.51.7.86.86.27.13.69-.11.86,0,.52.33,2.08,2.68,2.16,3.02.27,1.23-.21,2.98,0,4.31.18,1.14,1.62,5,1.73,6.03.32,3.06.5,11.87,0,14.65-.06.32-.76.51-.86.86-.59,2.07-.99,2.55-1.73,4.31-.26.62-.28,2.48-.86,3.45-15.05,25-37.92,44.89-56.94,67.22-1.74,2.04-2.84,3-4.31,5.17-1.01,1.49-2.36,1.56-1.73,4.31.07.31.69.49.86.86.13.27-.11.69,0,.86,1.32,2.06,2.92.96,4.75,1.29,1.36.25,2.54,1.25,5.18.86,3.12-.46,7.24-1.17,10.35-1.72,3.7-.66,9.91-1.43,13.8-.86.29.04,2.53.64,3.45.86,6.19,1.52,14.95,6.69,20.7,7.76.96.18,3.65-.23,3.88,0,.18.18-.17,1.52,0,2.15.81,3,2.29,8.3,2.59,11.2.26,2.47.35,7.98,0,10.34-.05.32-.79.52-.86.86-.17.78.2,1.87,0,2.59-.09.32-.69.49-.86.86-.12.27.11.68,0,.86-.28.47-2.55,2.74-3.02,3.02-.19.11-.6-.12-.86,0-.37.17-.56.79-.86.86-.99.22-2.39-.19-3.45,0-.33.06-.55.82-.86.86-1.59.2-4.43.17-6.04,0-27.71-2.97-57.95.9-85.41-2.59-7.57-.96-12.34-.81-19.84,0-2.81.3-7.68-.28-10.35-.86-.8-.17-2.56-2.21-3.88-1.72.62-6.02-.85-13.58,0-19.39.05-.32.8-.53.86-.86,1.35-6.74,1.88-11.92,6.04-18.1,13.71-20.37,36.86-36.69,50.9-56.88,1.31-1.88,4.77-5.89,5.18-7.76.44-2.03-.31-5.12,0-7.33-6.31.38-13.16-.52-19.41,0-.31.03-.55.83-.86.86-7.16.77-20.78-2.76-27.61-5.17-2.61-.92-7.01-3.63-9.49-4.31-1.79-.49-3.18.47-4.74-2.15-.11-.19.12-.59,0-.86-.17-.37-.78-.55-.86-.86-1.85-6.69-.23-12.52.86-18.96ZM867.99,127.13c.93-1.56,2.71-2,3.88-3.02h1.73c.82,1.46,2.29.55,3.45.86.51.14,1.44,1.51,3.02.86-.13.95.2,2.17,0,3.02-.08.32-.73.5-.86.86-1,2.72-5.28,8.82-7.76,10.34-.93.57-1.58.49-2.59.43.65-1.58-.73-2.51-.86-3.02-.2-.76-.83-3.21-.86-3.45-.16-1.09-.22-4.21,0-5.17.07-.31.69-.49.86-.86.12-.27-.11-.68,0-.86ZM715.29,102.14c.62-2.84,5.19-8.49,6.9-11.2,1.72-2.72,3.23-6.02,5.18-8.62,6.79-9.05,16.92-19.69,28.04-22.84.35-.1.54-.8.86-.86,1.3-.23,2.97.2,4.31,0,6.22-.93,12.46-.33,18.98-.86,4.98-.4,11.3-2.24,16.39-2.59,19.32-1.3,36.42,2.39,45.29,20.25,4.87,7.18,6.26,14.72,7.76,22.41,4.26,21.81,4.16,46.68,2.59,69.81-.72,10.62-.01,20.11-4.31,29.3-1.4,3-3.53,6.32-5.18,9.48-.61,1.18-.72,2.96-2.16,3.88-.19.12-.63-.13-.86,0-2.02,1.12-4.09,2.21-6.04,3.45-3.73.73-7.3.5-11.21.86-9.56.88-19.4.06-29.33-.86-8.89-.82-13.84.07-22.43.86-6.45.6-15.98,1.66-22.43.86-.32-.04-.53-.8-.86-.86-1.86-.33-2.53-.36-4.31-.86-1.63-.46-4.62-1.1-6.04-1.72-1.41-.62-4.62-3.26-5.61-4.74-2.43-3.66-4.65-8.75-6.04-12.93-1.58-4.74-2.56-10.71-1.73-16.37.05-.32.8-.53.86-.86.73-3.63,1.41-6.82,3.45-10.34,8.4-14.5,28.43-27.06,44.43-30.59,4.93-1.09,13.52-1.32,18.98-.86.31.03.55.83.86.86,1.37.15,4.88.26,6.04,0,.31-.07.49-.69.86-.86.27-.12.68.11.86,0,2.32-1.38,2.54-3.91,2.16-6.46-.05-.32-.8-.53-.86-.86-.73-3.61-1.37-6.11-2.59-9.48-1.33-3.66-4.01-9.43-7.33-11.63-.19-.12-.63.13-.86,0-.56-.33-2.31-1.66-2.59-1.72-.93-.2-4.18-.18-5.18,0-.32.06-.51.76-.86.86-.56.16-1.26-.19-1.73,0-3.55,1.41-9.67,6.77-12.51,9.91-.14.15.15.69,0,.86-5.99,6.82-11.55,13.47-20.27,15.94-.35.1-.54.8-.86.86-2.51.45-7.6.14-9.06-2.15-.61-.96-1.97-3.84-2.59-5.17-.22-.47.22-1.25,0-1.72-.8-1.71-2.51-5.43-3.45-6.89-.3-.47-1.69-1.86-2.16-2.15-.2-.12-.64.13-.86,0-.66-.39-2.04-1.52-2.59-1.72-1.88-.69-4.19-.45-6.04-.86-.31-.07-.49-.69-.86-.86-.27-.12-.68.11-.86,0-.34-.2-2.12-2.01-2.16-2.15-.23-.82-.21-6.82,0-7.76ZM717.01,140.92c.11.19-.12.6,0,.86.16.36.73.52.86.86.19.47-.16,1.17,0,1.72.1.35.81.54.86.86.23,1.29.18,4.67,0,6.03-.42,3.12-5.61,2.88-6.9.86-.12-.19.13-.63,0-.86-.71-1.28-2.05-2.52-2.59-3.45-.63-1.07-1.11-3.17-1.73-4.31-.76-1.42-3.19-2.94-2.59-5.17l3.88-3.02h.86c.71,1.29,1.74.62,2.59.86.32.09,4.44,4.23,4.75,4.74ZM574.67,196.94c.08-.67.62-2.92.86-4.31,2.97-16.68.67-42.93.86-61.19,0-.29.86-.57.86-.86.23-21.83-.17-43.67,0-65.5l4.75-3.88c6.59-2.66,11.9-3.41,18.98-4.31.32-.04.55-.83.86-.86,10.77-.98,18.42,2.79,27.61,6.03.63,1.38,3.6,2,3.88,3.02.25.91-.19,2.4,0,3.45.06.33.82.55.86.86.56,4.55-.56,10.1,0,14.65.04.32.81.53.86.86.19,1.06-.22,2.45,0,3.45.22,1,2.08,2.64,2.59,3.45,1.37,2.17,2.31,4.69,4.74,6.46.18.13.66-.14.86,0,1.16.79,1.49,2.32,3.45,1.72.32-.1.5-.69.86-.86.26-.12.68.11.86,0,.49-.29,1.75-1.62,2.16-2.15.42-.56,2.23-3.49,2.59-4.31,1.28-2.95,2.2-7.12,3.45-10.34,1.78-4.59,4.15-11.86,6.9-15.51,2.23-2.96,5.49-4.54,8.2-6.46,1.96-.67,3.98-.5,6.04-.86.33-.06.55-.82.86-.86,4.45-.55,16.26-.55,20.7,0,.32.04.53.8.86.86,3.21.57,3.8.33,6.9,1.72,1.74.78,3.66,1.2,4.74,3.02.11.19-.12.6,0,.86.16.36.73.52.86.86.19.48-.18,1.19,0,1.72.15.46,1.37.91.86,2.59-.11.35-.8.54-.86.86-.19,1.05.21,2.43,0,3.45-.07.33-.76.51-.86.86-4.27,15.06-15.62,27.36-24.16,39.64-1.71,2.46-5.01,6.71-6.04,9.48-.18.48.16,1.17,0,1.72-.1.35-.81.54-.86.86-.19,1.09-.22,5.03,0,6.03.07.31.72.49.86.86.24.59.61,2.19.86,2.59,1.18,1.85,4.37,2.92,6.04,5.17,6.73,9.08,12.72,25.49,17.25,36.2,1.64,3.87,5.36,9.96,6.04,13.79,1,5.65-.74,13.85,0,19.82-.85.53-2.41,2.85-3.02,3.02-.91.25-2.4-.19-3.45,0-.33.06-.55.82-.86.86-3.19.39-7.02-.21-10.35,0-.3.02-.56.84-.86.86-9.61.6-15.91-1.51-24.16-3.45-.98-.23-2.43.21-3.45,0-.32-.07-.51-.75-.86-.86-.51-.16-1.19.15-1.73,0-.17-.05-1.92-1.79-2.16-2.15-.13-.2.13-.66,0-.86-1.63-2.52-2.94-5.7-4.31-7.76-3.34-4.98-7.89-9.66-11.22-14.65-3.39-5.09-5.59-11.91-8.63-17.24l-3.02-2.15h-1.73c-1,1.02-4.24,1.2-4.75,3.02-.25.91.19,2.4,0,3.45-.06.33-.82.55-.86.86-1.18,9.53-.73,19.86-1.73,29.3-.2,1.91.31,4.26,0,6.03-.05.3-.71.49-.86.86-.19.47.15,1.14,0,1.29-.18.18-1.52-.17-2.16,0-.76.21-3.75,1.64-4.31,1.72-8.56,1.25-17.28.9-25.88,0-.31-.03-.55-.84-.86-.86-2.95-.24-6.8.48-9.49,0-.32-.06-.5-.75-.86-.86-.51-.16-1.19.15-1.73,0-.21-.06-2.78-2.62-3.02-3.02-.11-.19.12-.59,0-.86-.17-.37-.79-.56-.86-.86-.36-1.62-.24-8.43,0-10.34ZM503.06,184.01c.02-.3.84-.55.86-.86,1.88-25.24,5.83-49.95,3.45-75.84-.68-7.39-3.82-14.87-2.59-23.27.28-1.9,2.31-5.85,2.59-7.76.46-3.13-.33-7.08,0-10.34l3.88-3.88,1.73-.86c1.5.55,2.09-.68,2.59-.86,5.69-2.03,12.9-2.96,18.98-4.31.34-.08.54-.8.86-.86,2.4-.44,3.29.63,4.31.86,4.86,1.08,9.21,1.79,13.8,3.45,1.6.58,4.75,1.76,6.04,2.59,1.35.86,1.46,2.96,3.02,3.88-.32,12.04.43,24.16,0,36.2-.51,14.37-2.57,29.77-3.45,43.95-1.1,17.66-3.19,35.12-1.73,52.57.16,1.93.31,6.02,0,7.76-.06.32-.75.5-.86.86-.16.51.16,1.18,0,1.72-.06.2-2.81,2.96-3.02,3.02-.54.15-1.21-.16-1.73,0-.36.11-.55.81-.86.86-1.54.27-3.55-.21-5.18,0-8.33,1.06-15.3,2.63-24.16.86-3.08-.62-6.09-1.05-9.49-.86-1.37-.66-2.38-1.84-3.45-2.59-.2-.14-.69.13-.86,0-.56-.43-1.81-1.62-2.16-2.15-.12-.19.13-.64,0-.86-.35-.59-1.62-2.21-1.73-2.59-.2-.72.17-1.8,0-2.59-.07-.34-.82-.54-.86-.86-.6-4.09-.27-12.83,0-17.24ZM494.44,149.54c-.06.44-1.66,3.87-1.73,4.31-.46,3.14.52,7.29,0,10.34-.06.33-1.34.77-.86,2.15-1.57.65-2.54-.74-3.02-.86-7.25-1.82-14.37-3.21-21.57-5.17-.35-.1-2.9-1.75-3.02-2.15v-1.72c.65-1.37,1.84-2.38,2.59-3.45,2.66-3.82,7.34-9.44,10.35-12.93,1.57-1.82,11.41-13.03,12.51-13.36.92-.27,2.35-.28,3.45-.86,1.43.96,1.18,1.58,1.29,3.02.39,4.92.68,16.07,0,20.68ZM358.13,179.7c.05-.19,1.52-3.13,1.73-3.45,3.51-5.3,12.53-11.05,17.25-16.37.14-.16-.14-.7,0-.86,14.1-15.81,25.68-32.63,42.27-47.4-.29-1.01,1.59-2.82,1.73-3.45.39-1.8-.27-4.5,0-6.46-1.41.47-1.71-.73-2.16-.86-.6-.18-4.09-.92-4.31-.86-3.25.89-4.47.56-7.76.86-.31.03-.56.84-.86.86-11.34.83-22.57-1.97-32.78-5.17-2.82-.89-5.9-2.22-8.63-3.45-1.79-.81-3.54-1.14-4.74-3.02-.12-.19.13-.64,0-.86-.35-.59-1.62-2.21-1.73-2.59-.2-.72.17-1.8,0-2.59-.07-.34-.82-.54-.86-.86-.39-2.67-.39-11.12,0-13.79.05-.32.78-.52.86-.86.18-.77-.2-1.87,0-2.59.06-.21,2.58-2.73,3.02-3.02,2.29-1.52,5.21-2.03,7.76-2.59,2.23-.48,5.54-1.39,7.76-1.72,33.93-5.1,79.75-9.2,113.01,0,.32.09.49.69.86.86.27.12.68-.11.86,0,2.86,1.7,1.74,3.32,2.16,5.6.06.33.81.54.86.86.6,3.58,1.25,9.23.86,12.93-.03.31-.81.54-.86.86-.33,2.18-.34,3.09-.86,5.17-7.75,31.07-38.84,56.7-61.25,80.15.11,1.34-2.32,3.05-2.59,4.31-.34,1.57.23,3.88,0,5.6,7.3-.22,14.69.31,22,0,.3-.01.56-.85.86-.86,6.47-.3,13.08-.4,18.98,1.72,3.03,1.09,6.49,3.19,9.49,4.31,1.68.63,4.41.75,6.04,1.72.52.31,2.65,2.46,3.02,3.02.12.19-.13.63,0,.86.33.55,1.66,2.31,1.73,2.59.88,4.06-.36,11.64,0,16.37.02.31.83.55.86.86.14,1.43.3,5.82,0,6.89-.69,2.49-4.02,1.87-5.61,2.15-3.89.71-6.26.58-10.35.86-8.49.57-17.66,1.08-26.74.86-17.52-.42-36.76-.63-54.35-1.72-.3-.02-.56-.85-.86-.86-9.93-.53-26.64.92-34.51-4.31-.44-.29-2.96-2.81-3.02-3.02-.35-1.27.2-3.61,0-5.17-.04-.32-.83-.55-.86-.86-.48-5.23.05-12.33.86-17.24.05-.32.79-.52.86-.86.17-.78-.2-1.87,0-2.59ZM358.99,123.25c1.38.48,1.82-.8,2.16-.86,4.3-.73,7.85,2.11,12.08,2.59.8,1.27,3.42.56,3.88,2.15.64,2.2-2.35,4.27-2.59,6.03-1.75,1.01-2.64,3.32-3.45,4.31-2.48,3.03-5.87,4.43-9.06,6.46-.97-.69-1.06-1.09-1.29-2.15-1.11-4.99-.33-8.86-.86-13.79-.03-.31-.81-.53-.86-.86-.19-1.18.13-2.63,0-3.88ZM209.31,111.19c-2.17-1.4-2.54-5.58-2.16-8.19.05-.32.79-.52.86-.86.6-2.76,1.01-5.02,2.59-7.76,4.34-7.5,20.15-25.66,27.18-30.59,1.5-1.05,3.33-2.77,5.18-3.45.48-.18,1.17.16,1.73,0,.35-.1.54-.8.86-.86,3.85-.69,9.58.34,13.8,0,1.69-.14,5.96-1.45,7.76-1.72,9.99-1.5,23.98-3.67,34.51-2.59.31.03.54.81.86.86,4.35.65,8.64.88,12.94,2.59,9.58,3.79,18.22,14.16,22,23.7,3.31,8.34,4.05,16.99,5.18,25.85,2.96,23.34,7.15,51.65,1.73,74.98-2.13,9.15-8.14,18.31-12.94,26.72-.21.36-.73.54-.86.86-.19.46.15,1.14,0,1.29-.21.21-2.2-.16-3.02,0-.78.16-2.04.58-3.45.86-22.06,4.41-49.92,2.7-73.33,4.31-7.36.5-14.68-.74-20.71-3.45-.55-.25-2.22-.62-2.59-.86-.83-.55-3.23-3.01-3.88-3.88-.13-.17.14-.66,0-.86-3.17-4.5-5.15-8.54-6.9-13.79-1.54-4.62-2.7-11.76-1.73-17.24.06-.32.78-.52.86-.86,1.28-5.17,3.68-10.67,6.9-14.65,1.09-1.36,3.63-3.08,4.31-4.31.23-.41-.16-1.13,0-1.29.16-.16.89.23,1.29,0,1.66-.93,4.2-4.56,6.04-6.03,3.39-2.72,7.94-4.72,12.08-6.89,3.87-2.03,8.51-4.86,12.94-6.03,2.78-.74,5.79-.5,8.63-.86,1.99-.25,3.77-1.2,6.9-.86.31.03.55.84.86.86,2.64.22,10.77.49,12.94,0,.31-.07.49-.69.86-.86.27-.12.68.11.86,0,.34-.2,2.12-2.01,2.16-2.15.25-.91.2-6.62,0-7.76-.34-1.9-4.75-11.85-6.04-13.79-.39-.59-4.42-4.65-4.75-4.74-.54-.15-1.21.16-1.73,0-.36-.11-.55-.81-.86-.86-1.27-.23-6.59-.26-7.76,0-.19.04-2.9,1.41-3.45,1.72-8.55,4.87-14.79,17.34-23.29,22.41-.21.13-.65-.13-.86,0-1.2.71-5.18,3.26-6.04,3.45-.85.19-4.33.19-5.18,0-.31-.07-.49-.69-.86-.86-.27-.12-.68.11-.86,0-1.8-1.07-2.2-3.52-3.88-4.74v-.86c-1.35-2.1-2.04-5.34-3.45-7.76-.36-.62-2.69-3.67-3.02-3.88-.39-.25-2.84-1.48-3.45-1.72-.86-.35-3.45-.51-4.31-.86-.83-.33-2.2-1.81-3.45-1.72Z"/>
  <path class="cls-1" d="M73.01,31.9c-4.06-3.01-7.02-2.3-11.22-3.45-1-.27-6.97-3.71-7.76-4.31-1.16-.87-3.88-3.59-4.74-4.74-3.17-4.23-3.75-9.67-5.18-14.65-.15-.52-4.75-5-5.61-4.74l-5.61,5.6c-.4,4.06-2.02,7.48-4.31,11.2-1.47,2.39-3.97,5.46-6.47,7.33-2.76,2.07-5.45,2.52-8.63,3.45-.35.1-.54.79-.86.86-1.73.36-3.32-.24-5.18.86-.51.3-4.66,4.42-4.74,4.74-.51,1.86.41,2.46.86,3.45.12.27-.11.68,0,.86.24.4,1.75,1.91,2.16,2.15.19.11.6-.12.86,0,.37.17.56.79.86.86,2.77.62,5.88.68,8.63,1.72,1.7.64,6.55,3.4,7.76,4.31,4.41,3.3,6.25,8.81,9.06,13.36.48,1.5.5,3.84.86,5.17.09.32.69.49.86.86.13.27-.11.69,0,.86,1.06,1.67,4.66,2.65,6.47,2.15.21-.06,2.96-2.81,3.02-3.02.58-2.01.48-4.18.86-6.03.34-1.66,2.32-5.06,3.45-6.89,4.16-6.77,9.14-9.66,16.82-11.63.34-.09.53-.79.86-.86,1.03-.21,2.53.25,3.45,0,1.02-.28,4.99-5.53,6.47-6.46-1.06-.87-1.96-2.23-3.02-3.02Z"/>
  <path class="cls-1" d="M108.38,140.49c.47.1,2.78,1.47,3.45,1.72.51.19,1.24-.2,1.73,0,.34.13.51.7.86.86.26.12.68-.11.86,0,.65.39,4.28,4.03,4.74,4.74,2.26,3.41.99,5.96,1.73,8.62.14.5,4.75,5,5.61,4.74.56-.17,4.04-3.8,3.88-4.74,1.45-2.27,2-5.49,3.45-7.76.7-1.7,2.25-4.37,3.88-5.6.17-.13.66.14.86,0,.89-.62,2.36-2.29,3.45-2.59.72-.2,1.8.17,2.59,0,.34-.07.54-.82.86-.86,1.6-.23,3.63.28,5.18,0,.32-.06.51-.75.86-.86.51-.16,1.18.15,1.73,0,1.61-.46,2.5-4.88,2.16-6.46-.06-.27-1.76-2.9-2.16-3.02-.54-.15-1.21.16-1.73,0-.36-.11-.55-.81-.86-.86-3.11-.55-6.18.36-9.49-.86-.41-.15-3.22-1.57-3.45-1.72-.64-.42-3.53-3.28-3.88-3.88-.1-.17-.76-1.47-.86-1.72-1.05-2.64-.92-6.72-1.73-9.48-.1-.34-.75-.52-.86-.86-.16-.51.16-1.18,0-1.72-.04-.15-2.01-2.11-2.16-2.15-2.29-.63-4.52.52-6.47.86v8.19c-.91,1.71-1.45,3.25-2.59,5.17-.13.23.12.68,0,.86-.55.83-3.01,3.23-3.88,3.88-3.56,2.67-7.91,3.44-12.08,4.31-.34.07-.54.81-.86.86-2.2.36-2.82.11-5.18.86-.72.23-2.61-.18-3.02,1.29-.58,2.09.66,3.83.86,5.6,1.32-.49,3.08,1.55,3.88,1.72,2.37.51,6.11.34,8.63.86Z"/>
  <path class="cls-1" d="M36.77,213.74c-.26-.12-.68.11-.86,0-.57-.34-4.4-4.17-4.74-4.74-1.08-1.8-.96-4.97-1.73-6.89-.13-.34-.7-.51-.86-.86-.13-.27.11-.69,0-.86-.9-1.41-2.59-1.5-3.88-2.15-.33-.17-.52-.64-.86-.86-.87-.25-4.51,2.17-4.74,3.02-.2.73.2,1.85,0,2.59-.23.84-2.06,5.23-2.59,6.03-.54.81-3.93,4.2-4.74,4.74-2.22,1.47-6.34,1.98-8.63,3.45-.45.29-1.9,1.73-2.16,2.15-.11.19.12.59,0,.86-.17.37-.79.55-.86.86-.44,1.91.49,3.75,2.16,4.74.98.58,2.77.59,3.45.86,1.44.57,4.86,1.8,6.04,2.59.81.54,4.21,3.93,4.74,4.74,1.46,2.2,1.71,5.47,2.59,7.76.43,1.11,2.09,2.44,1.73,3.88h5.61c1.63-1.4,2.13-3.67,3.02-5.6.83-1.8,1.58-4.27,2.59-6.03,3.09-5.41,7.16-5.29,11.65-8.19,1.27-.82,1.1-1.88,1.29-2.15.64-.9,1.86-1.67,2.59-2.59l-5.61-5.6c-1.92.06-3.58-.99-5.18-1.72Z"/>
  <path class="cls-1" d="M1171.5,422.3h83.34c-.31-.4-.61-.8-.94-1.19-17.37-20.36-52.72-19.3-82.4,1.19Z"/>
  <path class="cls-1" d="M1216.43,491.18c-17,14.51-39.52,16.03-50.3,3.4-10.33-12.1-6.12-32.8,9.21-47.28h-29.2c-16.97,24.14-19.79,52.34-4.83,69.87,19.04,22.32,59.68,18.91,90.77-7.61,20.99-17.91,32.24-41.77,31.48-62.25h-32.51c5.93,12.86.2,31.22-14.63,43.88Z"/>
  <path class="cls-1" d="M1171.5,422.3c-2.85,1.97-5.65,4.1-8.37,6.43-6.67,5.69-12.34,11.98-16.97,18.57h29.2c.67-.63,1.35-1.25,2.06-1.86,17-14.51,39.52-16.03,50.3-3.4,1.37,1.61,2.49,3.38,3.36,5.26h32.51c-.34-9.33-3.18-17.95-8.73-24.99h-83.34Z"/>
  <path class="cls-1" d="M1372.22,312.42c10.68-19,8.26-40.57-5.4-48.18-2.22-1.24-4.61-2.02-7.09-2.4v19.28c5.78,5.18,6.49,15.71,1.25,25.04-.39.7-.81,1.37-1.25,2.02v19.21c4.76-3.84,9.09-8.9,12.49-14.96Z"/>
  <path class="cls-1" d="M1332.98,290.56c.78-1.39,1.65-2.67,2.6-3.85v-17.08c-4.89,3.88-9.35,9.03-12.84,15.24-10.68,19-8.26,40.57,5.4,48.18,2.33,1.3,4.83,2.09,7.44,2.44v-18.86c-6.99-4.68-8.22-16.07-2.6-26.08Z"/>
  <path class="cls-1" d="M1335.57,269.63v17.08c6.13-7.69,15.28-10.91,21.98-7.18.8.44,1.51.98,2.17,1.58v-19.28c-7.78-1.18-16.5,1.73-24.16,7.79Z"/>
  <path class="cls-1" d="M1336.4,317.18c-.29-.16-.55-.35-.83-.54v18.86c7.81,1.06,16.53-1.95,24.16-8.11v-19.21c-6.06,8.99-16.12,13.02-23.33,9Z"/>
  <path class="cls-1" d="M1392.61,168.84c-6.62-16.15-22.67-28.61-35.84-27.84-13.17.78-18.48,14.5-11.86,30.65,6.62,16.15,22.67,28.61,35.84,27.84,13.17-.78,18.48-14.5,11.86-30.65ZM1374.83,186.26c-7.46.44-16.44-6.37-20.06-15.2-3.62-8.83-.52-16.35,6.94-16.79,7.46-.44,16.44,6.37,20.06,15.2,3.62,8.83.52,16.35-6.94,16.79Z"/>
  <path class="cls-1" d="M1304.94,119.1c9.47-1.88,10.61-11.1,2.54-20.57-8.07-9.48-22.3-15.63-31.77-13.75-9.47,1.88-10.61,11.1-2.54,20.57,8.07,9.48,22.3,15.63,31.77,13.75ZM1281.98,92.62c5.36-1.07,13.29,2.27,17.7,7.45,4.42,5.18,3.65,10.25-1.71,11.32s-13.29-2.27-17.7-7.45c-4.42-5.18-3.65-10.25,1.71-11.32Z"/>
  <polygon class="cls-1" points="1370.94 426.77 1377 426.77 1377 447.3 1382.42 447.3 1382.42 426.77 1388.44 426.77 1388.44 422.3 1370.94 422.3 1370.94 426.77"/>
  <path class="cls-1" d="M1405.86,422.3l-3.24,14.11c-.28,1.27-.46,2.43-.53,3.38h-.11c-.07-.95-.24-2.11-.49-3.38l-3.34-14.11h-7.43v24.99h4.61v-14.82c0-1.51,0-3.34-.11-4.75h.14c.03.71.25,1.9.49,3.03l3.94,16.55h4.33l3.84-16.55c.21-1.09.39-2.11.49-3.06h.14c-.1,1.48-.1,3.31-.1,4.79v14.82h4.82v-24.99h-7.46Z"/>
</svg>